0
SECTION
2
HEADER
9
$INSUNITS
70
4
9
$ACADVER
1
AC1014
9
$HANDSEED
5
FFFF
0
ENDSEC
0
SECTION
2
TABLES
0
TABLE
2
VPORT
5
8
100
AcDbSymbolTable
0
ENDTAB
0
TABLE
2
LTYPE
5
5
100
AcDbSymbolTable
0
LTYPE
5
14
100
AcDbSymbolTableRecord
100
AcDbLinetypeTableRecord
2
BYBLOCK
70
0
0
LTYPE
5
15
100
AcDbSymbolTableRecord
100
AcDbLinetypeTableRecord
2
BYLAYER
70
0
0
ENDTAB
0
TABLE
2
LAYER
5
2
100
AcDbSymbolTable
70
2
0
LAYER
5
50
100
AcDbSymbolTableRecord
100
AcDbLayerTableRecord
2
0
70
0
6
CONTINUOUS
0
ENDTAB
0
TABLE
2
STYLE
5
3
100
AcDbSymbolTable
70
1
0
STYLE
5
11
100
AcDbSymbolTableRecord
100
AcDbTextStyleTableRecord
2
STANDARD
70
0
0
ENDTAB
0
TABLE
2
VIEW
5
6
100
AcDbSymbolTable
70
0
0
ENDTAB
0
TABLE
2
UCS
5
7
100
AcDbSymbolTable
70
0
0
ENDTAB
0
TABLE
2
APPID
5
9
100
AcDbSymbolTable
70
2
0
APPID
5
12
100
AcDbSymbolTableRecord
100
AcDbRegAppTableRecord
2
ACAD
70
0
0
ENDTAB
0
TABLE
2
DIMSTYLE
5
A
100
AcDbSymbolTable
70
1
0
ENDTAB
0
TABLE
2
BLOCK_RECORD
5
1
100
AcDbSymbolTable
70
1
0
BLOCK_RECORD
5
1F
100
AcDbSymbolTableRecord
100
AcDbBlockTableRecord
2
*MODEL_SPACE
0
BLOCK_RECORD
5
1B
100
AcDbSymbolTableRecord
100
AcDbBlockTableRecord
2
*PAPER_SPACE
0
ENDTAB
0
ENDSEC
0
SECTION
2
BLOCKS
0
BLOCK
5
20
100
AcDbEntity
100
AcDbBlockBegin
2
*MODEL_SPACE
0
ENDBLK
5
21
100
AcDbEntity
100
AcDbBlockEnd
0
BLOCK
5
1C
100
AcDbEntity
100
AcDbBlockBegin
2
*PAPER_SPACE
0
ENDBLK
5
1D
100
AcDbEntity
100
AcDbBlockEnd
0
ENDSEC
0
SECTION
2
ENTITIES
0
LWPOLYLINE
5
100
100
AcDbEntity
8
0
100
AcDbPolyline
90
8
70
1
43
0.0
10
-27.500000000000409
20
23.499999999999925
42
0.4142135623730947
10
-23.500000000000412
20
27.499999999999925
10
-23.500000000000405
20
60.500000000000171
42
0.41421356237309437
10
-27.500000000000409
20
64.500000000000171
10
-60.500000000000242
20
64.500000000000171
42
0.4142135623730937
10
-64.500000000000242
20
60.500000000000171
10
-64.500000000000242
20
27.499999999999925
42
0.41421356237309342
10
-60.500000000000242
20
23.499999999999925
0
LWPOLYLINE
5
101
100
AcDbEntity
8
0
100
AcDbPolyline
90
6
70
1
43
0.0
10
-45.732051638041149
20
39.000000581145287
10
-42.26794997128426
20
39.000000581145287
10
-40.535899137905815
20
36.000000536441803
10
-42.26794997128426
20
33.000000491738319
10
-45.732051638041149
20
33.000000491738319
10
-47.464102471419594
20
36.000000536441803
0
LWPOLYLINE
5
102
100
AcDbEntity
8
0
100
AcDbPolyline
90
6
70
1
43
0.0
10
-45.732051638041149
20
55.000000581145287
10
-42.26794997128426
20
55.000000581145287
10
-40.535899137905815
20
52.000000536441803
10
-42.26794997128426
20
49.000000491738319
10
-45.732051638041149
20
49.000000491738319
10
-47.464102471419594
20
52.000000536441803
0
LWPOLYLINE
5
103
100
AcDbEntity
8
0
100
AcDbPolyline
90
6
70
1
43
0.0
10
-47.464102471419594
20
60.000000536441803
10
-45.732051638041149
20
63.000000581145287
10
-42.26794997128426
20
63.000000581145287
10
-40.535899137905815
20
60.000000536441803
10
-42.26794997128426
20
57.000000491738319
10
-45.732051638041149
20
57.000000491738319
0
LWPOLYLINE
5
104
100
AcDbEntity
8
0
100
AcDbPolyline
90
6
70
1
43
0.0
10
-45.732051638041149
20
47.000000581145287
10
-42.26794997128426
20
47.000000581145287
10
-40.535899137905815
20
44.000000536441803
10
-42.26794997128426
20
41.000000491738319
10
-45.732051638041149
20
41.000000491738319
10
-47.464102471419594
20
44.000000536441803
0
LWPOLYLINE
5
105
100
AcDbEntity
8
0
100
AcDbPolyline
90
6
70
1
43
0.0
10
-35.732051638041149
20
39.000000581145287
10
-32.26794997128426
20
39.000000581145287
10
-30.535899137905815
20
36.000000536441803
10
-32.26794997128426
20
33.000000491738319
10
-35.732051638041149
20
33.000000491738319
10
-37.464102471419594
20
36.000000536441803
0
LWPOLYLINE
5
106
100
AcDbEntity
8
0
100
AcDbPolyline
90
6
70
1
43
0.0
10
-50.535899137905815
20
36.000000536441803
10
-52.26794997128426
20
33.000000491738319
10
-55.732051638041149
20
33.000000491738319
10
-57.464102471419594
20
36.000000536441803
10
-55.732051638041149
20
39.000000581145287
10
-52.26794997128426
20
39.000000581145287
0
LWPOLYLINE
5
107
100
AcDbEntity
8
0
100
AcDbPolyline
90
6
70
1
43
0.0
10
-35.732051638041149
20
55.000000581145287
10
-32.26794997128426
20
55.000000581145287
10
-30.535899137905815
20
52.000000536441803
10
-32.26794997128426
20
49.000000491738319
10
-35.732051638041149
20
49.000000491738319
10
-37.464102471419594
20
52.000000536441803
0
LWPOLYLINE
5
108
100
AcDbEntity
8
0
100
AcDbPolyline
90
6
70
1
43
0.0
10
-55.732051638041149
20
55.000000581145287
10
-52.26794997128426
20
55.000000581145287
10
-50.535899137905815
20
52.000000536441803
10
-52.26794997128426
20
49.000000491738319
10
-55.732051638041149
20
49.000000491738319
10
-57.464102471419594
20
52.000000536441803
0
LWPOLYLINE
5
109
100
AcDbEntity
8
0
100
AcDbPolyline
90
6
70
1
43
0.0
10
-55.732051638041149
20
47.000000581145287
10
-52.26794997128426
20
47.000000581145287
10
-50.535899137905815
20
44.000000536441803
10
-52.26794997128426
20
41.000000491738319
10
-55.732051638041149
20
41.000000491738319
10
-57.464102471419594
20
44.000000536441803
0
LWPOLYLINE
5
110
100
AcDbEntity
8
0
100
AcDbPolyline
90
6
70
1
43
0.0
10
-35.732051638041149
20
47.000000581145287
10
-32.26794997128426
20
47.000000581145287
10
-30.535899137905815
20
44.000000536441803
10
-32.26794997128426
20
41.000000491738319
10
-35.732051638041149
20
41.000000491738319
10
-37.464102471419594
20
44.000000536441803
0
LWPOLYLINE
5
111
100
AcDbEntity
8
0
100
AcDbPolyline
90
6
70
1
43
0.0
10
-47.464102471419594
20
28.000000536441796
10
-45.732051638041149
20
31.000000581145279
10
-42.26794997128426
20
31.000000581145279
10
-40.535899137905815
20
28.000000536441796
10
-42.26794997128426
20
25.000000491738312
10
-45.732051638041149
20
25.000000491738312
0
CIRCLE
5
112
100
AcDbEntity
8
0
100
AcDbCircle
10
-29.500000000000245
20
58.500000000000121
30
0
40
2.200000000000002
210
0
220
0
230
1
0
CIRCLE
5
113
100
AcDbEntity
8
0
100
AcDbCircle
10
-29.500000000000412
20
29.499999999999925
30
0
40
2.1499999999997987
210
0
220
0
230
1
0
CIRCLE
5
114
100
AcDbEntity
8
0
100
AcDbCircle
10
-58.500000000000242
20
58.500000000000171
30
0
40
2.2001272054409071
210
0
220
0
230
1
0
CIRCLE
5
115
100
AcDbEntity
8
0
100
AcDbCircle
10
-58.500000000000291
20
29.500000000000188
30
0
40
2.1999999999999971
210
0
220
0
230
1
0
ENDSEC
0
SECTION
2
OBJECTS
0
DICTIONARY
5
C
100
AcDbDictionary
3
ACAD_GROUP
350
D
3
ACAD_MLINESTYLE
350
17
0
DICTIONARY
5
D
100
AcDbDictionary
0
DICTIONARY
5
1A
330
C
100
AcDbDictionary
0
DICTIONARY
5
17
100
AcDbDictionary
0
ENDSEC
0
EOF
