0
SECTION
2
HEADER
9
$INSUNITS
70
4
9
$ACADVER
1
AC1014
9
$HANDSEED
5
FFFF
0
ENDSEC
0
SECTION
2
TABLES
0
TABLE
2
VPORT
5
8
100
AcDbSymbolTable
0
ENDTAB
0
TABLE
2
LTYPE
5
5
100
AcDbSymbolTable
0
LTYPE
5
14
100
AcDbSymbolTableRecord
100
AcDbLinetypeTableRecord
2
BYBLOCK
70
0
0
LTYPE
5
15
100
AcDbSymbolTableRecord
100
AcDbLinetypeTableRecord
2
BYLAYER
70
0
0
ENDTAB
0
TABLE
2
LAYER
5
2
100
AcDbSymbolTable
70
2
0
LAYER
5
50
100
AcDbSymbolTableRecord
100
AcDbLayerTableRecord
2
0
70
0
6
CONTINUOUS
0
ENDTAB
0
TABLE
2
STYLE
5
3
100
AcDbSymbolTable
70
1
0
STYLE
5
11
100
AcDbSymbolTableRecord
100
AcDbTextStyleTableRecord
2
STANDARD
70
0
0
ENDTAB
0
TABLE
2
VIEW
5
6
100
AcDbSymbolTable
70
0
0
ENDTAB
0
TABLE
2
UCS
5
7
100
AcDbSymbolTable
70
0
0
ENDTAB
0
TABLE
2
APPID
5
9
100
AcDbSymbolTable
70
2
0
APPID
5
12
100
AcDbSymbolTableRecord
100
AcDbRegAppTableRecord
2
ACAD
70
0
0
ENDTAB
0
TABLE
2
DIMSTYLE
5
A
100
AcDbSymbolTable
70
1
0
ENDTAB
0
TABLE
2
BLOCK_RECORD
5
1
100
AcDbSymbolTable
70
1
0
BLOCK_RECORD
5
1F
100
AcDbSymbolTableRecord
100
AcDbBlockTableRecord
2
*MODEL_SPACE
0
BLOCK_RECORD
5
1B
100
AcDbSymbolTableRecord
100
AcDbBlockTableRecord
2
*PAPER_SPACE
0
ENDTAB
0
ENDSEC
0
SECTION
2
BLOCKS
0
BLOCK
5
20
100
AcDbEntity
100
AcDbBlockBegin
2
*MODEL_SPACE
0
ENDBLK
5
21
100
AcDbEntity
100
AcDbBlockEnd
0
BLOCK
5
1C
100
AcDbEntity
100
AcDbBlockBegin
2
*PAPER_SPACE
0
ENDBLK
5
1D
100
AcDbEntity
100
AcDbBlockEnd
0
ENDSEC
0
SECTION
2
ENTITIES
0
CIRCLE
5
100
100
AcDbEntity
8
0
100
AcDbCircle
10
76.407519962333325
20
13.799999999999738
30
0
40
2.9854082268951743
210
0
220
-0
230
1
0
CIRCLE
5
101
100
AcDbEntity
8
0
100
AcDbCircle
10
92.969033234238026
20
93.863581256736722
30
0
40
1.5000000000000002
210
0
220
0
230
1
0
CIRCLE
5
102
100
AcDbEntity
8
0
100
AcDbCircle
10
88.094918312679127
20
3.173708449736834
30
0
40
1.5000000000000002
210
0
220
0
230
1
0
CIRCLE
5
103
100
AcDbEntity
8
0
100
AcDbCircle
10
10.943008478330487
20
3.6830638840695507
30
0
40
1.5000000000000002
210
0
220
0
230
1
0
LWPOLYLINE
5
104
100
AcDbEntity
8
0
100
AcDbPolyline
90
20
70
1
43
0.0
10
40.823373923595923
20
16.789999999157629
10
41.836851714664434
20
16.789999999157629
42
-0.12030163832235316
10
42.205497888109626
20
16.879999999999733
10
55.60549788810961
20
16.879999999999768
42
-0.12030163832236307
10
55.974144061554874
20
16.789999999157629
10
56.903373923595936
20
16.789999999157633
42
-0.4142135623730987
10
57.263373923595935
20
16.42999999915763
10
57.2633739235959
20
12.955886878842239
42
-0.32925364132983553
10
57.009244829183118
20
12.611806435704088
10
56.271576071305354
20
12.384831433266806
42
0.13853685561610626
10
55.970201810381866
20
12.190031698144917
10
54.880887002604737
20
10.952173962047734
42
-0.21553280552302986
10
54.610630136513777
20
10.830000004210278
10
43.116117710678061
20
10.830000004210367
42
-0.21553280552299164
10
42.845860844587158
20
10.952173962047791
10
41.756546036810001
20
12.190031698144864
42
0.13853685561609189
10
41.455171775886484
20
12.384831433266791
10
40.717503018008742
20
12.611806435704025
42
-0.32925364132984375
10
40.463373923595931
20
12.955886878842175
10
40.463373923595931
20
16.42999999915763
42
-0.41421356237309687
0
LWPOLYLINE
5
105
100
AcDbEntity
8
0
100
AcDbPolyline
90
8
70
1
43
0.0
10
90
20
-1
10
101
20
10
10
101
20
90.596000000000004
10
91
20
100.596
10
24.000000000000004
20
100.596
10
-0.99999999999999645
20
75.596000000000004
10
-0.99999999999999645
20
9.0000000000000036
10
9.0000000000000036
20
-0.99999999999999978
0
ENDSEC
0
SECTION
2
OBJECTS
0
DICTIONARY
5
C
100
AcDbDictionary
3
ACAD_GROUP
350
D
3
ACAD_MLINESTYLE
350
17
0
DICTIONARY
5
D
100
AcDbDictionary
0
DICTIONARY
5
1A
330
C
100
AcDbDictionary
0
DICTIONARY
5
17
100
AcDbDictionary
0
ENDSEC
0
EOF
